#!OML:ASF F:\VICON\USERDATA\INSTALL\rory3\rory3.ASF
:FULLY-SPECIFIED
:DEGREES
11
root -0.6770550000000006 18.9736 -21.632300000000065 3.7213100000000003 4.537100000000001 -5.769190000000005
lfemur -32.93109999999999 -3.406739999999998 -16.515800000000002
ltibia 35.17700000000001
lfoot 2.954240000000001 -5.580850000000002
ltoes -23.804600000000015
rfemur 12.275099999999956 7.2751099999999855 34.17469999999999
rtibia 36.67099999999997
rfoot 26.70979999999998 -5.843039999999999
rtoes 21.8938
lowerback nan 2.2361999999999993 5.862979999999996
upperback -2.4923899999999986 4.119080000000004 1.88101
thorax -9.52926 1.710799999999999 -2.1165199999999977
lowerneck -17.634499999999996 -5.398880000000004 -1.7667500000000005
upperneck 17.565199999999997 -7.285420000000006 1.6055100000000015
head 8.499 -3.382729999999998 -0.07676200000000111
lclavicle 1.9903300000000014e-14 -1.6300300000000022e-14
lhumerus -73.03170000000001 -2.1692499999999892 95.3027
lradius 103.104
lwrist 34.1474
lhand -24.5274 0.972340000000002
lfingers nan
lthumb 1.9680199999999999 30.943
rclavicle 1.9903300000000014e-14 -1.6300300000000022e-14
rhumerus -43.90699999999998 18.02470000000001 -97.3587
rradius 118.12300000000002
rwrist -8.636700000000001
rhand -19.123000000000005 nan
rfingers nan
rthumb 7.1864500000000024 11.028
12
root -0.6602220000000004 19.001600000000003 -20.583800000000004 3.5053999999999994 4.518620000000004 -6.280740000000006
lfemur -31.118600000000022 -4.765300000000006 -15.715700000000002
ltibia 27.690600000000018
lfoot 3.8395500000000027 -6.137240000000002
ltoes -22.704500000000017
rfemur 11.935000000000066 8.299060000000003 35.27770000000001
rtibia 41.7375
rfoot 25.53300000000003 -6.53286
rtoes 21.25719999999997
lowerback nan 2.2644300000000017 6.214620000000007
upperback -2.4636000000000013 4.218609999999995 2.0634799999999998
thorax -9.41028 1.74992 -2.1283600000000025
lowerneck -17.787000000000003 -5.538359999999999 -1.8250099999999994
upperneck 17.252699999999997 -7.4494400000000045 1.607709999999999
head 8.42498 -3.4663199999999996 -0.08674970000000004
lclavicle 3.1805500000000087e-15 7.951390000000009e-16
lhumerus -73.3904 -1.8815600000000199 95.572
lradius 103.344
lwrist 33.8902
lhand -23.891599999999997 0.9117160000000004
lfingers nan
lthumb 2.5820300000000014 30.8758
rclavicle 3.1805500000000087e-15 7.951390000000009e-16
rhumerus -44.683800000000005 19.056699999999985 -98.2377
rradius 117.97399999999999
rwrist -7.988099999999998
rhand -18.666200000000003 nan
rfingers nan
rthumb 7.627379999999999 11.816099999999997
13
root -0.6536429999999989 18.9675 -19.544399999999975 3.1954699999999994 4.618480000000005 -5.9995999999999965
lfemur -29.69459999999998 -5.821860000000001 -16.008199999999988
ltibia 22.899199999999936
lfoot 4.568340000000007 -5.878370000000003
ltoes -17.21459999999999
rfemur 11.024200000000029 8.424630000000015 35.281100000000016
rtibia 48.19799999999998
rfoot 24.21680000000002 -8.046629999999997
rtoes 21.311699999999995
lowerback nan 2.2566900000000008 5.516109999999996
upperback -2.6484900000000016 4.103040000000004 2.1650400000000003
thorax -9.5584 1.730309999999999 -1.6030100000000034
lowerneck -15.779700000000002 -5.464920000000002 -1.9001600000000003
upperneck 15.830599999999997 -7.340490000000004 1.7187099999999993
head 7.60515 -3.4499700000000004 0.055130500000000526
lclavicle -1.6250600000000025e-14 -2.385419999999995e-14
lhumerus -74.09009999999998 -2.0442700000000205 96.3985
lradius 103.506
lwrist 33.8898
lhand -23.8196 0.596345000000003
lfingers nan
lthumb 2.6515600000000004 30.559600000000003
rclavicle -1.6250600000000025e-14 -2.385419999999995e-14
rhumerus -46.3782 19.38940000000001 -99.1391
rradius 117.32300000000001
rwrist -7.597419999999993
rhand -18.2198 nan
rfingers nan
rthumb 8.05817 11.794400000000003
14
root -0.6511089999999997 18.8916 -18.5084 2.761929999999999 4.124939999999997 -5.614449999999994
lfemur -28.233500000000017 -5.310800000000013 -16.8616
ltibia 20.675500000000053
lfoot 4.946949999999996 -6.621470000000001
ltoes -15.346600000000006
rfemur 9.11705999999998 8.560549999999992 34.78210000000001
rtibia 55.91110000000001
rfoot 23.899799999999964 -10.2733
rtoes 19.085999999999984
lowerback nan 2.522210000000002 4.99037
upperback -1.7066899999999996 4.280219999999998 1.8607
thorax -8.437039999999996 1.8823899999999987 -1.6370000000000022
lowerneck -18.326 -5.508689999999999 -1.5313599999999994
upperneck 15.660100000000005 -7.528689999999997 2.126969999999999
head 7.995070000000001 -3.447890000000001 0.03948670000000043
lclavicle -1.0933200000000006e-15 1.3119799999999978e-14
lhumerus -71.94049999999999 -3.5643199999999897 96.9717
lradius 103.43999999999998
lwrist 34.0418
lhand -24.3351 0.6261789999999987
lfingers nan
lthumb 2.1537099999999993 30.595100000000002
rclavicle -1.0933200000000006e-15 1.3119799999999978e-14
rhumerus -45.29090000000001 19.03330000000001 -99.4046
rradius 116.01499999999999
rwrist -7.463119999999997
rhand -18.2225 nan
rfingers nan
rthumb 8.05563 11.751499999999998
15
root -0.6580149999999992 18.7568 -17.50609999999996 1.9829999999999977 4.9039200000000065 -4.9604
lfemur -26.662 -3.7461100000000007 -18.826600000000003
ltibia 20.667600000000043
lfoot 4.419890000000001 -9.863759999999996
ltoes -12.971200000000001
rfemur 6.425149999999974 6.727729999999992 33.502399999999994
rtibia 64.2953
rfoot 26.245100000000008 -11.622599999999991
rtoes 20.959899999999987
lowerback nan 2.225629999999999 4.2437499999999995
upperback -1.3161199999999995 3.7712200000000053 1.6713599999999997
thorax -8.407549999999997 1.6707100000000008 -1.3477200000000011
lowerneck -18.428099999999997 -5.466750000000003 -1.653860000000001
upperneck 15.309399999999998 -7.514439999999996 2.58887
head 7.92022 -3.405309999999999 0.2148739999999994
lclavicle 2.8351700000000086e-14 1.2324599999999987e-14
lhumerus -70.61059999999995 -4.9054899999999915 97.7237
lradius 103.444
lwrist 33.8795
lhand -24.216999999999995 0.6199789999999992
lfingers nan
lthumb 2.2678100000000003 30.587700000000005
rclavicle 2.8351700000000086e-14 1.2324599999999987e-14
rhumerus -45.273799999999994 18.671500000000005 -99.9121
rradius 113.985
rwrist -6.972319999999993
rhand -18.719 nan
rfingers nan
rthumb 7.576419999999995 10.2891
16
root -0.6810460000000009 18.5364 -16.55350000000005 1.021239999999998 6.49744 -4.580689999999997
lfemur -25.651499999999984 -3.0839700000000034 -20.1672
ltibia 22.970500000000037
lfoot 3.2649899999999996 -12.262400000000003
ltoes -16.904299999999985
rfemur 3.254179999999966 3.56455 32.18509999999999
rtibia 72.85799999999999
rfoot 26.143199999999993 -13.328700000000001
rtoes 19.255100000000034
lowerback nan 1.699590000000002 3.6956599999999957
upperback -1.0511599999999999 3.019509999999998 1.5196299999999998
thorax -8.816840000000001 1.3202600000000002 -1.0962999999999967
lowerneck -18.3723 -5.461540000000002 -1.4497600000000006
upperneck 15.212400000000002 -7.60726 2.83736
head 7.88349 -3.4144100000000024 0.2555479999999994
lclavicle -1.2610400000000011e-14 1.49089e-15
lhumerus -68.94400000000005 -6.8320300000000085 98.4683
lradius 103.423
lwrist 32.9946
lhand -23.9124 0.9113389999999983
lfingers nan
lthumb 2.562000000000001 30.875699999999995
rclavicle -1.2610400000000011e-14 1.49089e-15
rhumerus -45.9682 17.660699999999995 -100.59300000000002
rradius 112.028
rwrist -6.983719999999995
rhand -19.238400000000002 nan
rfingers nan
rthumb 7.075009999999999 10.2014
17
root -0.6883829999999992 18.2769 -15.591100000000031 -0.19407000000000707 7.998549999999994 -4.305810000000003
lfemur -25.112800000000014 -3.5183700000000013 -20.862
ltibia 27.654399999999956
lfoot 2.105949999999994 -14.606099999999984
ltoes -4.865249999999986
rfemur 0.2619129999999821 0.4014249999999995 30.751999999999995
rtibia 81.01600000000005
rfoot 25.123899999999963 -14.650199999999984
rtoes 20.36280000000001
lowerback nan 1.08457 3.4983599999999972
upperback -0.8771069999999994 2.2103499999999996 1.308819999999999
thorax -9.45318 0.9214260000000001 -1.0779399999999946
lowerneck -17.7346 -5.470429999999999 -1.6086
upperneck 14.9334 -7.709450000000004 3.551350000000001
head 7.72235 -3.415459999999999 0.5218630000000001
lclavicle -1.7893700000000044e-14 4.969619999999995e-15
lhumerus -67.32860000000002 -8.868309999999996 99.082
lradius 103.577
lwrist 32.1452
lhand -24.591 0.1379329999999972
lfingers nan
lthumb 1.9066099999999992 30.109200000000005
rclavicle -1.7893700000000044e-14 4.969619999999995e-15
rhumerus -47.3948 16.238199999999992 -101.47
rradius 110.051
rwrist -8.343900000000003
rhand -18.1728 nan
rfingers nan
rthumb 8.103570000000003 10.2374
18
root -0.6611439999999997 18.004 -14.591700000000044 -0.8161399999999936 8.420159999999992 -4.172260000000003
lfemur -25.086299999999994 -4.411279999999992 -21.0093
ltibia 34.358
lfoot -3.3487400000000007 -14.549500000000002
ltoes 7.514259999999998
rfemur -3.4735500000000137 -1.844349999999995 28.9503
rtibia 88.72520000000004
rfoot 21.959300000000034 -14.541599999999995
rtoes 15.495199999999992
lowerback nan 0.7064610000000002 3.401650000000002
upperback -0.5210580000000015 1.6925499999999998 1.2527899999999992
thorax -9.32469 0.682228 -0.9713620000000035
lowerneck -18.532500000000002 -5.378609999999997 -1.8223
upperneck 15.504899999999997 -7.614720000000005 3.888300000000001
head 8.07132 -3.324109999999997 0.650823
lclavicle 1.4557900000000028e-14 5.317490000000001e-15
lhumerus -64.45769999999999 -10.504699999999993 99.678
lradius 103.65000000000002
lwrist 32.2641
lhand -25.2414 0.372857000000004
lfingers nan
lthumb 1.2783800000000003 30.3488
rclavicle 1.4557900000000028e-14 5.317490000000001e-15
rhumerus -48.257799999999996 15.183199999999992 -101.72099999999999
rradius 107.662
rwrist -7.596850000000001
rhand -18.7456 nan
rfingers nan
rthumb 7.550690000000004 10.238
19
root -0.6419869999999999 17.6832 -13.638700000000041 -1.4434299999999949 6.873779999999999 -3.886079999999998
lfemur -23.75150000000001 -3.5018299999999964 -21.6148
ltibia 40.959600000000016
lfoot -11.770500000000023 -10.711400000000005
ltoes -1.5494300000000223
rfemur -7.638070000000004 -2.109079999999999 27.049600000000005
rtibia 96.09900000000007
rfoot 21.073199999999964 -13.16360000000001
rtoes 16.755299999999995
lowerback nan 1.07087 2.7687700000000026
upperback -0.08102920000000036 2.0672199999999994 1.1520100000000013
thorax -9.314919999999999 0.8915220000000004 -0.8248320000000037
lowerneck -18.957099999999997 -5.346250000000004 -1.6914200000000004
upperneck 15.242900000000002 -7.620300000000002 4.051630000000003
head 8.05929 -3.3001799999999983 0.6760180000000001
lclavicle 2.664790000000004e-14 6.001589999999991e-15
lhumerus -61.084700000000005 -12.545200000000001 100.141
lradius 104.07300000000001
lwrist 33.4506
lhand -25.8562 0.797487000000001
lfingers nan
lthumb 0.6846070000000007 30.7761
rclavicle 2.664790000000004e-14 6.001589999999991e-15
rhumerus -48.4543 14.403499999999992 -101.75299999999999
rradius 104.673
rwrist -7.87791
rhand -19.7216 nan
rfingers nan
rthumb 6.608550000000005 10.862200000000001
